<svg xmlns="http://www.w3.org/2000/svg" width="82" height="40" viewBox="0 0 82 40" fill="none"><path d="M19.4126 32.7458C20.4645 32.7458 21.3173 31.893 21.3173 30.841C21.3173 29.7891 20.4645 28.9363 19.4126 28.9363C18.3606 28.9363 17.5078 29.7891 17.5078 30.841C17.5078 31.893 18.3606 32.7458 19.4126 32.7458Z" fill="#EE3131"></path><path d="M65.1264 32.7458C66.1784 32.7458 67.0312 31.893 67.0312 30.841C67.0312 29.7891 66.1784 28.9363 65.1264 28.9363C64.0745 28.9363 63.2217 29.7891 63.2217 30.841C63.2217 31.893 64.0745 32.7458 65.1264 32.7458Z" fill="#EE3131"></path><path d="M76.1428 15.7676L62.1223 13.6406L48.695 2.5905C47.4444 1.56383 45.8768 1.00184 44.2587 1.00002H25.6635C24.6156 0.997434 23.5807 1.23188 22.6362 1.68581C21.6917 2.13975 20.8621 2.80141 20.2095 3.62129L12.1479 13.6984H6.71428C5.19928 13.7001 3.7468 14.3027 2.67553 15.374C1.60426 16.4452 1.00168 17.8977 1 19.4127V25.7619C1.00206 27.6136 1.73854 29.3888 3.04788 30.6982C4.35721 32.0075 6.13245 32.744 7.98412 32.746H11.383C11.8114 34.5537 12.8372 36.1639 14.2944 37.3162C15.7516 38.4684 17.555 39.0953 19.4127 39.0953C21.2704 39.0953 23.0738 38.4684 24.531 37.3162C25.9882 36.1639 27.014 34.5537 27.4424 32.746H57.0972C57.5256 34.5537 58.5514 36.1639 60.0086 37.3162C61.4658 38.4684 63.2692 39.0953 65.1269 39.0953C66.9846 39.0953 68.788 38.4684 70.2452 37.3162C71.7024 36.1639 72.7282 34.5537 73.1566 32.746H75.2856C76.8007 32.7443 78.2531 32.1418 79.3244 31.0705C80.3957 29.9992 80.9982 28.5468 80.9999 27.0317V21.4175C81.0068 20.0486 80.5191 18.7233 79.6268 17.6852C78.7344 16.6472 77.4972 15.9662 76.1428 15.7676ZM46.2754 5.53272L56.198 13.6984H37.8254V4.80954H44.2587C44.9942 4.81053 45.7068 5.06605 46.2754 5.53272ZM23.1844 6.00002C23.4812 5.62754 23.8583 5.32699 24.2876 5.12083C24.7169 4.91468 25.1872 4.80826 25.6635 4.80954H26.3968V13.6984H17.0265L23.1844 6.00002ZM19.4127 35.2857C18.5337 35.2857 17.6744 35.025 16.9435 34.5367C16.2126 34.0483 15.6429 33.3542 15.3066 32.5421C14.9702 31.73 14.8821 30.8363 15.0536 29.9742C15.2251 29.1121 15.6484 28.3201 16.27 27.6986C16.8916 27.077 17.6835 26.6537 18.5456 26.4822C19.4078 26.3107 20.3014 26.3988 21.1135 26.7351C21.9256 27.0715 22.6197 27.6412 23.1081 28.3721C23.5965 29.103 23.8571 29.9622 23.8571 30.8413C23.8558 32.0196 23.3871 33.1493 22.5539 33.9825C21.7207 34.8157 20.591 35.2844 19.4127 35.2857ZM65.1269 35.2857C64.2479 35.2857 63.3886 35.025 62.6577 34.5367C61.9268 34.0483 61.3572 33.3542 61.0208 32.5421C60.6844 31.73 60.5964 30.8363 60.7679 29.9742C60.9394 29.1121 61.3627 28.3201 61.9842 27.6986C62.6058 27.077 63.3977 26.6537 64.2599 26.4822C65.122 26.3107 66.0156 26.3988 66.8277 26.7351C67.6399 27.0715 68.334 27.6412 68.8223 28.3721C69.3107 29.103 69.5714 29.9622 69.5714 30.8413C69.57 32.0196 69.1013 33.1493 68.2681 33.9825C67.4349 34.8157 66.3053 35.2844 65.1269 35.2857ZM77.1904 27.0317C77.1899 27.5368 76.989 28.0209 76.6319 28.378C76.2748 28.7351 75.7907 28.936 75.2856 28.9365H73.1566C72.7282 27.1288 71.7024 25.5186 70.2452 24.3664C68.788 23.2141 66.9846 22.5873 65.1269 22.5873C63.2692 22.5873 61.4658 23.2141 60.0086 24.3664C58.5514 25.5186 57.5256 27.1288 57.0972 28.9365H27.4424C27.014 27.1288 25.9882 25.5186 24.531 24.3664C23.0738 23.2141 21.2704 22.5873 19.4127 22.5873C17.555 22.5873 15.7516 23.2141 14.2944 24.3664C12.8372 25.5186 11.8114 27.1288 11.383 28.9365H7.98412C7.14246 28.9355 6.33555 28.6008 5.74041 28.0056C5.14526 27.4105 4.81049 26.6036 4.80952 25.7619V19.4127C4.81007 18.9077 5.01092 18.4235 5.36801 18.0664C5.72511 17.7093 6.20927 17.5085 6.71428 17.5079H28.3016C28.8067 17.5079 29.2912 17.3073 29.6484 16.9501C30.0056 16.5928 30.2063 16.1084 30.2063 15.6032V4.80954H34.0158V15.6032C34.0158 16.1084 34.2165 16.5928 34.5737 16.9501C34.9309 17.3073 35.4154 17.5079 35.9206 17.5079H62.2196L75.5714 19.534C76.0208 19.6048 76.4304 19.8331 76.727 20.1782C77.0236 20.5232 77.1879 20.9625 77.1904 21.4175V27.0317Z" fill="#EE3131" stroke="#FFF9ED" stroke-width="0"></path><path d="M38.3592 18.7776H36.5306C36.1669 18.7776 35.8181 18.9221 35.5609 19.1793C35.3037 19.4365 35.1592 19.7853 35.1592 20.149C35.1592 20.5127 35.3037 20.8616 35.5609 21.1188C35.8181 21.376 36.1669 21.5204 36.5306 21.5204H38.3592C38.7229 21.5204 39.0717 21.376 39.3289 21.1188C39.5861 20.8616 39.7306 20.5127 39.7306 20.149C39.7306 19.7853 39.5861 19.4365 39.3289 19.1793C39.0717 18.9221 38.7229 18.7776 38.3592 18.7776Z" fill="#EE3131"></path><path d="M19.4126 32.7458C20.4645 32.7458 21.3173 31.893 21.3173 30.841C21.3173 29.7891 20.4645 28.9363 19.4126 28.9363C18.3606 28.9363 17.5078 29.7891 17.5078 30.841C17.5078 31.893 18.3606 32.7458 19.4126 32.7458Z" fill="#EE3131"></path><path d="M65.1264 32.7458C66.1784 32.7458 67.0312 31.893 67.0312 30.841C67.0312 29.7891 66.1784 28.9363 65.1264 28.9363C64.0745 28.9363 63.2217 29.7891 63.2217 30.841C63.2217 31.893 64.0745 32.7458 65.1264 32.7458Z" fill="#EE3131"></path></svg>